<svg viewBox="0 -20 300 140" xmlns="http://www.w3.org/2000/svg">
<g transform="scale(1, 1)">
<g fill="CornflowerBlue">
<rect height="33.333336" width="50" x="50" y="66.666664"/>
<text fill="Black" font-family="Arial" font-size="5" x="51" y="98">
0x000000
</text>
<text fill="Black" font-family="Arial" font-size="5" x="51" y="71.666664">
0x010000
</text>
</g>
<g fill="CornflowerBlue">
<rect height="33.333336" width="50" x="50" y="33.33333"/>
<text fill="Black" font-family="Arial" font-size="5" x="51" y="64.666664">
0x010000
</text>
<text fill="Black" font-family="Arial" font-size="5" x="51" y="38.33333">
0x020000
</text>
</g>
<g fill="CornflowerBlue">
<rect height="33.333336" width="50" x="50" y="-0.0000076293945"/>
<text fill="Black" font-family="Arial" font-size="5" x="51" y="31.333328">
0x020000
</text>
<text fill="Black" font-family="Arial" font-size="5" x="51" y="4.9999924">
0x030000
</text>
</g>
<g fill="Crimson">
<rect height="8.333334" width="50" x="100" y="91.666664"/>
<text fill="Black" font-family="Arial" font-size="5" x="101" y="98">
0x000000
</text>
<text fill="Black" font-family="Arial" font-size="5" x="101" y="96.666664">
0x004000
</text>
</g>
<g fill="Crimson">
<rect height="8.333334" width="50" x="100" y="83.33333"/>
<text fill="Black" font-family="Arial" font-size="5" x="101" y="89.666664">
0x004000
</text>
<text fill="Black" font-family="Arial" font-size="5" x="101" y="88.33333">
0x008000
</text>
</g>
<g fill="Crimson">
<rect height="8.333334" width="50" x="100" y="74.99999"/>
<text fill="Black" font-family="Arial" font-size="5" x="101" y="81.33333">
0x008000
</text>
<text fill="Black" font-family="Arial" font-size="5" x="101" y="79.99999">
0x00C000
</text>
</g>
<g fill="Crimson">
<rect height="8.333334" width="50" x="100" y="58.33333"/>
<text fill="Black" font-family="Arial" font-size="5" x="101" y="64.666664">
0x010000
</text>
<text fill="Black" font-family="Arial" font-size="5" x="101" y="63.33333">
0x014000
</text>
</g>
<g fill="Crimson">
<rect height="8.333334" width="50" x="100" y="50"/>
<text fill="Black" font-family="Arial" font-size="5" x="101" y="56.333336">
0x014000
</text>
<text fill="Black" font-family="Arial" font-size="5" x="101" y="55">
0x018000
</text>
</g>
<g fill="Crimson">
<rect height="8.333334" width="50" x="100" y="41.666664"/>
<text fill="Black" font-family="Arial" font-size="5" x="101" y="48">
0x018000
</text>
<text fill="Black" font-family="Arial" font-size="5" x="101" y="46.666664">
0x01C000
</text>
</g>
<g fill="Crimson">
<rect height="8.333334" width="50" x="100" y="33.333336"/>
<text fill="Black" font-family="Arial" font-size="5" x="101" y="39.66667">
0x01C000
</text>
<text fill="Black" font-family="Arial" font-size="5" x="101" y="38.333336">
0x020000
</text>
</g>
<g fill="Crimson">
<rect height="8.333334" width="50" x="100" y="24.999994"/>
<text fill="Black" font-family="Arial" font-size="5" x="101" y="31.333328">
0x020000
</text>
<text fill="Black" font-family="Arial" font-size="5" x="101" y="29.999994">
0x024000
</text>
</g>
<g fill="Crimson">
<rect height="8.333334" width="50" x="100" y="16.666666"/>
<text fill="Black" font-family="Arial" font-size="5" x="101" y="23">
0x024000
</text>
<text fill="Black" font-family="Arial" font-size="5" x="101" y="21.666666">
0x028000
</text>
</g>
<g fill="MediumSeaGreen">
<rect height="10.473633" width="50" x="150" y="89.52637"/>
<text fill="Black" font-family="Arial" font-size="5" x="151" y="98">
0x000000
</text>
<text fill="Black" font-family="Arial" font-size="5" x="151" y="94.52637">
0x005070
</text>
</g>
<g fill="MediumSeaGreen">
<rect height="1.5625" width="50" x="150" y="81.77083"/>
<text fill="Black" font-family="Arial" font-size="5" x="151" y="81.33333">
0x008000
</text>
<text fill="Black" font-family="Arial" font-size="5" x="151" y="86.77083">
0x008C00
</text>
</g>
<g fill="MediumSeaGreen">
<rect height="44.930016" width="50" x="150" y="21.736649"/>
<text fill="Black" font-family="Arial" font-size="5" x="151" y="64.666664">
0x010000
</text>
<text fill="Black" font-family="Arial" font-size="5" x="151" y="26.736649">
0x025910
</text>
</g>
<g fill="SandyBrown">
<rect height="6.193034" width="50" x="150" y="83.333336"/>
<text fill="Black" font-family="Arial" font-size="5" x="151" y="87.52637">
0x005070
</text>
<text fill="Black" font-family="Arial" font-size="5" x="151" y="88.333336">
0x008000
</text>
</g>
<g fill="SandyBrown">
<rect height="6.7708335" width="50" x="150" y="74.99999"/>
<text fill="Black" font-family="Arial" font-size="5" x="151" y="79.77083">
0x008C00
</text>
<text fill="Black" font-family="Arial" font-size="5" x="151" y="79.99999">
0x00C000
</text>
</g>
<g fill="SandyBrown">
<rect height="5.0699873" width="50" x="150" y="16.66666"/>
<text fill="Black" font-family="Arial" font-size="5" x="151" y="19.736649">
0x025910
</text>
<text fill="Black" font-family="Arial" font-size="5" x="151" y="21.66666">
0x028000
</text>
</g>
</g>
</svg>